# xmcd CD database file
#
# Track frame offsets:
#	150
#	27115
#	50065
#	68966
#	91319
#	113572
#	149681
#	181708
#	214912
#	235524
#	262023
#	287629
#
# Disc length: 4161 seconds
#
# Revision: 0
# Processed by: cddbd v1.5.2PL0 Copyright (c) Steve Scherf et al.
# Submitted via: CDex 1.51
#
DISCID=ad103f0c
DTITLE=Dino Acquafredda (Quintet) - On The Line
DYEAR=2009
DGENRE=Jazz
TTITLE0=On The Line
TTITLE1=Urban Heat
TTITLE2=Evidence
TTITLE3=Guardian Angels
TTITLE4=Good Lady
TTITLE5=Still
TTITLE6=Are You The Blues
TTITLE7=Vision
TTITLE8=Moon Lite
TTITLE9=For My Love
TTITLE10=The Well
TTITLE11=Lotus Land
EXTD=YEAR: 2009
EXTT0=
EXTT1=
EXTT2=
EXTT3=
EXTT4=
EXTT5=
EXTT6=
EXTT7=
EXTT8=
EXTT9=
EXTT10=
EXTT11=
PLAYORDER=
